<svg version="1.1" viewBox="0 0 640 400" xmlns="http://www.w3.org/2000/svg" xmlns:xlink="http://www.w3.org/1999/xlink" xmlns:svgjs="http://svgjs.dev/svgjs" matcher="0.5167999922949789"><g viewBox="0 0 640 400" matcher="0.5167999922949789"><g matcher="0.5167999922949789"><g matcher="0.5167999922949789"><g matcher="0.5167999922949789"><svg viewBox="0 0 640 400" data-background-color="#636365" preserveAspectRatio="xMidYMid meet" height="400" width="640" xmlns="http://www.w3.org/2000/svg" xmlns:xlink="http://www.w3.org/1999/xlink"><rect width="640" height="400" x="0" y="0" opacity="1" fill="#636365" data-fill-palette-color="background" id="background"></rect><g id="tight-bounds" transform="matrix(1,0,0,1,122.24000000000001,123.65400000000001)"><svg viewBox="0 0 395.52 152.69199999999998" height="152.69199999999998" width="395.52"><g><svg viewBox="0 0 395.52 152.69199999999998" height="152.69199999999998" width="395.52"><g><svg viewBox="0 0 395.52 152.69199999999998" height="152.69199999999998" width="395.52"><g id="textblocktransform"><svg viewBox="0 0 395.52 152.69199999999998" height="152.69199999999998" width="395.52" id="textblock"><g><svg viewBox="0 0 395.52 152.69199999999998" height="152.69199999999998" width="395.52"><g><svg viewBox="0 0 395.52 152.69199999999998" height="152.69199999999998" width="395.52"><g><svg viewBox="0 0 395.52 223.6730084100921" height="223.6730084100921" width="395.52"><g transform="matrix(1,0,0,1,96.42520278969958,0)"><svg width="202.66959442060082" viewBox="3.549999952316284 -35 124.83999633789062 46.599998474121094" height="75.64599999999999" data-palette-color="#ffffff"><path d="M8.85 0L3.55 0 3.55-35 25.5-35 25.5-30.7 8.85-30.7 8.85-19.65 22.65-19.65 22.65-15.4 8.85-15.4 8.85 0ZM40.9 0.6L40.9 0.6Q37.35 0.6 34.52-1.03 31.7-2.65 30.05-5.58 28.4-8.5 28.4-12.4L28.4-12.4Q28.4-16.3 30.07-19.23 31.75-22.15 34.6-23.78 37.45-25.4 40.95-25.4L40.95-25.4Q44.5-25.4 47.32-23.78 50.15-22.15 51.82-19.23 53.5-16.3 53.5-12.4L53.5-12.4Q53.5-8.5 51.82-5.58 50.15-2.65 47.3-1.03 44.45 0.6 40.9 0.6ZM40.9-3.95L40.9-3.95Q42.8-3.95 44.42-4.9 46.05-5.85 47.05-7.73 48.05-9.6 48.05-12.4L48.05-12.4Q48.05-15.2 47.07-17.07 46.1-18.95 44.47-19.9 42.85-20.85 40.95-20.85L40.95-20.85Q39.05-20.85 37.42-19.9 35.8-18.95 34.8-17.07 33.8-15.2 33.8-12.4L33.8-12.4Q33.8-9.6 34.8-7.73 35.8-5.85 37.4-4.9 39-3.95 40.9-3.95ZM64.55 0L59.25 0 59.25-24.8 64-24.8 64.45-20.1Q65.75-22.55 68.07-23.98 70.4-25.4 73.7-25.4L73.7-25.4 73.7-19.85 72.25-19.85Q70.05-19.85 68.32-19.13 66.6-18.4 65.57-16.68 64.55-14.95 64.55-11.9L64.55-11.9 64.55 0ZM87.79-7.6L87.79-7.6Q85.84-7.6 84.19-8.05L84.19-8.05 82.04-5.95Q82.59-5.6 83.39-5.35 84.19-5.1 85.64-4.9 87.09-4.7 89.59-4.5L89.59-4.5Q94.54-4.05 96.74-2.13 98.94-0.2 98.94 3L98.94 3Q98.94 5.2 97.77 7.18 96.59 9.15 94.12 10.38 91.64 11.6 87.79 11.6L87.79 11.6Q82.59 11.6 79.37 9.63 76.14 7.65 76.14 3.65L76.14 3.65Q76.14 2.1 76.97 0.58 77.79-0.95 79.59-2.3L79.59-2.3Q78.54-2.75 77.77-3.28 76.99-3.8 76.39-4.35L76.39-4.35 76.39-5.55 80.69-9.95Q77.79-12.45 77.79-16.5L77.79-16.5Q77.79-18.95 78.97-20.98 80.14-23 82.39-24.2 84.64-25.4 87.79-25.4L87.79-25.4Q89.89-25.4 91.69-24.8L91.69-24.8 100.94-24.8 100.94-21.3 96.54-21.05Q97.74-19 97.74-16.5L97.74-16.5Q97.74-14 96.57-12 95.39-10 93.17-8.8 90.94-7.6 87.79-7.6ZM87.79-11.75L87.79-11.75Q90.09-11.75 91.52-12.98 92.94-14.2 92.94-16.45L92.94-16.45Q92.94-18.75 91.52-19.95 90.09-21.15 87.79-21.15L87.79-21.15Q85.44-21.15 84.02-19.95 82.59-18.75 82.59-16.45L82.59-16.45Q82.59-14.2 84.02-12.98 85.44-11.75 87.79-11.75ZM81.14 3.15L81.14 3.15Q81.14 5.3 83.04 6.38 84.94 7.45 87.79 7.45L87.79 7.45Q90.54 7.45 92.24 6.28 93.94 5.1 93.94 3.15L93.94 3.15Q93.94 1.7 92.79 0.68 91.64-0.35 88.44-0.6L88.44-0.6Q86.04-0.75 84.19-1.05L84.19-1.05Q82.44-0.1 81.79 1 81.14 2.1 81.14 3.15ZM116.29 0.6L116.29 0.6Q112.64 0.6 109.82-1.03 106.99-2.65 105.39-5.55 103.79-8.45 103.79-12.3L103.79-12.3Q103.79-16.2 105.37-19.15 106.94-22.1 109.77-23.75 112.59-25.4 116.34-25.4L116.34-25.4Q119.99-25.4 122.69-23.78 125.39-22.15 126.89-19.45 128.39-16.75 128.39-13.5L128.39-13.5Q128.39-13 128.37-12.43 128.34-11.85 128.29-11.15L128.29-11.15 108.99-11.15Q109.24-7.55 111.37-5.68 113.49-3.8 116.29-3.8L116.29-3.8Q118.54-3.8 120.07-4.83 121.59-5.85 122.34-7.6L122.34-7.6 127.64-7.6Q126.64-4.1 123.67-1.75 120.69 0.6 116.29 0.6ZM116.29-21.05L116.29-21.05Q113.64-21.05 111.59-19.48 109.54-17.9 109.09-14.75L109.09-14.75 123.09-14.75Q122.94-17.65 121.04-19.35 119.14-21.05 116.29-21.05Z" opacity="1" transform="matrix(1,0,0,1,0,0)" fill="#ffffff" class="undefined-w-0"></path></svg></g><g><svg><g></g><g></g></svg></g><g><svg><g></g><g><svg></svg></g></svg></g><g transform="matrix(1,0,0,1,38.254524306309975,76.64599999999999)" id="text-0"><svg viewBox="0 0 319.01095138738003 76.04599999999999" height="76.04599999999999" width="319.01095138738003"><g><svg xmlns="http://www.w3.org/2000/svg" xmlns:xlink="http://www.w3.org/1999/xlink" version="1.1" x="0" y="0" viewBox="12.50047492980957 5 74.99952697753906 90" style="enable-background:new 0 0 100 100;" xml:space="preserve" height="76.04599999999999" width="63.371266983710385" class="icon-y-0" data-fill-palette-color="accent" id="y-0"><path d="M77.5 24.204V7.5C77.5 6.119 76.381 5 75 5H65c-1.381 0-2.5 1.119-2.5 2.5v16.704c-6.048 2.871-10 9.011-10 15.796v52.5c0 1.381 1.119 2.5 2.5 2.5h30c1.381 0 2.5-1.119 2.5-2.5V40C87.5 33.215 83.548 27.075 77.5 24.204zM82.5 90h-25V71.25h3.75V85c0 0.69 0.56 1.25 1.25 1.25s1.25-0.56 1.25-1.25V71.25H82.5V90zM82.5 68.75h-25v-17.5h25V68.75zM82.5 48.75H63.75v-7.447V40c0-0.899 0.196-1.768 0.556-2.565 0.307-0.68 0.733-1.308 1.277-1.852 0.488-0.488 0.488-1.28 0-1.768-0.488-0.488-1.28-0.488-1.768 0C62.161 35.469 61.25 37.666 61.25 40v8.75H57.5V40c0-5.276 3.349-10.007 8.334-11.771 0.998-0.354 1.666-1.298 1.666-2.357V10h5v15.872c0 1.059 0.667 2.003 1.666 2.357C79.151 29.993 82.5 34.724 82.5 40V48.75z" fill="#ffffff" data-fill-palette-color="accent"></path><path d="M40 57.5H15c-0.729 0-1.422 0.318-1.897 0.872s-0.685 1.287-0.573 2.008l5 32.5C17.717 94.1 18.766 95 20 95h15c1.234 0 2.283-0.9 2.471-2.12l5-32.5c0.111-0.721-0.098-1.455-0.573-2.008S40.729 57.5 40 57.5zM32.855 90h-10.71l-4.231-27.5h19.172L32.855 90z" fill="#ffffff" data-fill-palette-color="accent"></path><path d="M26.433 86.25c0.063 0 0.127-0.004 0.191-0.015 0.683-0.105 1.15-0.743 1.045-1.425l-2.692-17.5c-0.105-0.683-0.74-1.158-1.425-1.045-0.683 0.105-1.15 0.743-1.045 1.425l2.692 17.5C25.294 85.808 25.827 86.25 26.433 86.25z" fill="#ffffff" data-fill-palette-color="accent"></path></svg></g><g transform="matrix(1,0,0,1,81.32526698371038,0)"><svg width="237.68568440366968" viewBox="2.1500000953674316 -36 146.8909149169922 47" height="76.04599999999999" data-palette-color="#ffffff"><path d="M15.1 0.6L15.1 0.6Q11.25 0.6 8.35-0.75 5.45-2.1 3.83-4.6 2.2-7.1 2.15-10.55L2.15-10.55 7.75-10.55Q7.8-7.75 9.7-5.8 11.6-3.85 15.05-3.85L15.05-3.85Q18.1-3.85 19.83-5.33 21.55-6.8 21.55-9.1L21.55-9.1Q21.55-10.95 20.73-12.1 19.9-13.25 18.48-14 17.05-14.75 15.2-15.35 13.35-15.95 11.3-16.65L11.3-16.65Q7.25-18 5.23-20.15 3.2-22.3 3.2-25.8L3.2-25.8Q3.15-28.75 4.58-30.95 6-33.15 8.58-34.38 11.15-35.6 14.6-35.6L14.6-35.6Q18-35.6 20.58-34.35 23.15-33.1 24.6-30.88 26.05-28.65 26.1-25.7L26.1-25.7 20.5-25.7Q20.5-27.05 19.8-28.28 19.1-29.5 17.75-30.3 16.4-31.1 14.45-31.1L14.45-31.1Q11.95-31.15 10.33-29.85 8.7-28.55 8.7-26.25L8.7-26.25Q8.7-24.2 9.9-23.1 11.1-22 13.2-21.28 15.3-20.55 18-19.6L18-19.6Q20.6-18.75 22.65-17.55 24.7-16.35 25.93-14.4 27.15-12.45 27.15-9.45L27.15-9.45Q27.15-6.8 25.8-4.53 24.45-2.25 21.75-0.83 19.05 0.6 15.1 0.6ZM38.05 11L32.75 11 32.75-24.8 37.5-24.8 38.05-20.95Q39.25-22.7 41.35-24.05 43.45-25.4 46.75-25.4L46.75-25.4Q50.35-25.4 53.1-23.7 55.85-22 57.42-19.05 59-16.1 59-12.35L59-12.35Q59-8.6 57.42-5.68 55.85-2.75 53.1-1.07 50.35 0.6 46.7 0.6L46.7 0.6Q43.8 0.6 41.57-0.55 39.35-1.7 38.05-3.8L38.05-3.8 38.05 11ZM45.8-4L45.8-4Q49.2-4 51.4-6.33 53.6-8.65 53.6-12.4L53.6-12.4Q53.6-14.85 52.6-16.75 51.6-18.65 49.85-19.73 48.1-20.8 45.8-20.8L45.8-20.8Q42.4-20.8 40.22-18.45 38.05-16.1 38.05-12.4L38.05-12.4Q38.05-8.65 40.22-6.33 42.4-4 45.8-4ZM67.75-29.5L67.75-29.5Q66.25-29.5 65.27-30.43 64.3-31.35 64.3-32.75L64.3-32.75Q64.3-34.15 65.27-35.08 66.25-36 67.75-36L67.75-36Q69.25-36 70.22-35.08 71.2-34.15 71.2-32.75L71.2-32.75Q71.2-31.35 70.22-30.43 69.25-29.5 67.75-29.5ZM70.4 0L65.09 0 65.09-24.8 70.4-24.8 70.4 0ZM82.69 0L77.39 0 77.39-24.8 82.14-24.8 82.59-20.1Q83.89-22.55 86.22-23.98 88.54-25.4 91.84-25.4L91.84-25.4 91.84-19.85 90.39-19.85Q88.19-19.85 86.47-19.13 84.74-18.4 83.72-16.68 82.69-14.95 82.69-11.9L82.69-11.9 82.69 0ZM99.39-29.5L99.39-29.5Q97.89-29.5 96.92-30.43 95.94-31.35 95.94-32.75L95.94-32.75Q95.94-34.15 96.92-35.08 97.89-36 99.39-36L99.39-36Q100.89-36 101.87-35.08 102.84-34.15 102.84-32.75L102.84-32.75Q102.84-31.35 101.87-30.43 100.89-29.5 99.39-29.5ZM102.04 0L96.74 0 96.74-24.8 102.04-24.8 102.04 0ZM123.54 0L119.44 0Q115.79 0 113.64-1.78 111.49-3.55 111.49-8.1L111.49-8.1 111.49-20.35 107.24-20.35 107.24-24.8 111.49-24.8 112.14-31.1 116.79-31.1 116.79-24.8 123.79-24.8 123.79-20.35 116.79-20.35 116.79-8.1Q116.79-6.05 117.66-5.28 118.54-4.5 120.69-4.5L120.69-4.5 123.54-4.5 123.54 0ZM139.14 0.6L139.14 0.6Q134.44 0.6 131.39-1.7 128.34-4 127.89-7.8L127.89-7.8 133.24-7.8Q133.64-6.1 135.14-4.88 136.64-3.65 139.09-3.65L139.09-3.65Q141.49-3.65 142.59-4.65 143.69-5.65 143.69-6.95L143.69-6.95Q143.69-8.85 142.16-9.53 140.64-10.2 137.94-10.75L137.94-10.75Q135.84-11.2 133.76-11.95 131.69-12.7 130.31-14.08 128.94-15.45 128.94-17.8L128.94-17.8Q128.94-21.05 131.44-23.23 133.94-25.4 138.44-25.4L138.44-25.4Q142.59-25.4 145.16-23.4 147.74-21.4 148.19-17.75L148.19-17.75 143.09-17.75Q142.84-19.35 141.61-20.25 140.39-21.15 138.34-21.15L138.34-21.15Q136.34-21.15 135.24-20.33 134.14-19.5 134.14-18.2L134.14-18.2Q134.14-16.9 135.66-16.15 137.19-15.4 139.69-14.8L139.69-14.8Q142.19-14.25 144.31-13.53 146.44-12.8 147.74-11.4 149.04-10 149.04-7.3L149.04-7.3Q149.09-3.9 146.41-1.65 143.74 0.6 139.14 0.6Z" opacity="1" transform="matrix(1,0,0,1,0,0)" fill="#ffffff" class="undefined-w-1"></path></svg></g></svg></g></svg></g></svg></g></svg></g></svg></g></svg></g><g></g></svg></g><defs></defs></svg><rect width="395.52" height="152.69199999999998" fill="none" stroke="none" visibility="hidden"></rect></g></svg></g></g></g></g><rect width="331.00279782289624" height="88.04601119129157" x="155.49451137475535" y="195.30000152886498" rx="2.5" ry="2.5" fill="transparent" class="logo-element-hover-target"></rect></svg>