<svg version="1.1" viewBox="0 0 640 400" xmlns="http://www.w3.org/2000/svg" xmlns:xlink="http://www.w3.org/1999/xlink" xmlns:svgjs="http://svgjs.dev/svgjs" matcher="0.9748598053350204"><g viewBox="0 0 640 400" matcher="0.9748598053350204"><g matcher="0.9748598053350204"><g matcher="0.9748598053350204"><g matcher="0.9748598053350204"><svg viewBox="0 0 640 400" data-background-color="#ffffff" preserveAspectRatio="xMidYMid meet" height="400" width="640" xmlns="http://www.w3.org/2000/svg" xmlns:xlink="http://www.w3.org/1999/xlink"><rect width="640" height="400" x="0" y="0" opacity="1" fill="#ffffff" data-fill-palette-color="background" id="background"></rect><g id="tight-bounds" transform="matrix(1,0,0,1,122.24000000000004,116.3918505144999)"><svg viewBox="0 0 395.5199999999999 167.2162989710002" height="167.2162989710002" width="395.5199999999999"><g><svg viewBox="0 0 475.4292523469099 201" height="167.2162989710002" width="395.5199999999999"><g><rect width="8.46989023951368" height="201" x="183.5913325227964" y="0" fill="#5a5a58" opacity="1" stroke-width="0" stroke="transparent" fill-opacity="1" class="rect-r-0" data-fill-palette-color="primary" rx="1%" id="r-0" data-palette-color="#5a5a58"></rect></g><g transform="matrix(1,0,0,1,214.233710300304,0.4999999999999858)"><svg viewBox="0 0 261.1955420466059 200.00000000000003" height="200.00000000000003" width="261.1955420466059"><g id="textblocktransform"><svg viewBox="0 0 261.1955420466059 200.00000000000003" height="200.00000000000003" width="261.1955420466059" id="textblock"><g><svg viewBox="0 0 261.1955420466059 200.00000000000003" height="200.00000000000003" width="261.1955420466059"><g transform="matrix(1,0,0,1,0,0)"><svg width="261.1955420466059" viewBox="2.400001287460327 -34.599998474121094 128.90000915527344 95.05000305175781" height="200.00000000000003" data-palette-color="#5a5a58"><svg></svg><svg></svg><g class="wordmark-text-0" data-fill-palette-color="primary" id="text-0"><path xmlns="http://www.w3.org/2000/svg" d="M8.1 0h-3.85v-34.6h20.7v3.4h-16.85v13.5h14.25v3.4h-14.25zM27.9-12.55c0-4.567 0.817-7.867 2.45-9.9 1.633-2.033 4.393-3.05 8.28-3.05 3.88 0 6.63 1.017 8.25 3.05 1.613 2.033 2.42 5.333 2.42 9.9 0 4.567-0.767 7.883-2.3 9.95-1.533 2.067-4.333 3.1-8.4 3.1-4.067 0-6.867-1.033-8.4-3.1-1.533-2.067-2.3-5.383-2.3-9.95zM31.75-12.63c0 3.653 0.443 6.213 1.33 7.68 0.88 1.467 2.73 2.2 5.55 2.2 2.813 0 4.653-0.727 5.52-2.18 0.867-1.447 1.3-4.003 1.3-7.67 0-3.667-0.483-6.193-1.45-7.58-0.967-1.38-2.757-2.07-5.37-2.07-2.62 0-4.42 0.69-5.4 2.07-0.987 1.387-1.48 3.903-1.48 7.55zM59.15 0h-3.75v-25h3.7v3.4c2.9-2 5.95-3.317 9.15-3.95v0 3.8c-1.4 0.267-2.857 0.683-4.37 1.25-1.52 0.567-2.68 1.067-3.48 1.5v0l-1.25 0.65zM82 11.75v0c-4 0-6.79-0.54-8.37-1.62-1.587-1.087-2.38-3.063-2.38-5.93v0c0-1.367 0.3-2.473 0.9-3.32 0.6-0.853 1.617-1.813 3.05-2.88v0c-0.933-0.633-1.4-1.783-1.4-3.45v0c0-0.567 0.417-1.617 1.25-3.15v0l0.45-0.8c-2.633-1.2-3.95-3.717-3.95-7.55v0c0-5.7 3.117-8.55 9.35-8.55v0c1.6 0 3.083 0.167 4.45 0.5v0l0.75 0.15 7.4-0.2v3.2l-4.75-0.1c1.1 1.1 1.65 2.767 1.65 5v0c0 3.133-0.773 5.323-2.32 6.57-1.553 1.253-3.997 1.88-7.33 1.88v0c-0.9 0-1.717-0.067-2.45-0.2v0c-0.6 1.467-0.9 2.417-0.9 2.85v0c0 1.033 0.317 1.673 0.95 1.92 0.633 0.253 2.55 0.38 5.75 0.38 3.2 0 5.5 0.5 6.9 1.5 1.4 1 2.1 2.95 2.1 5.85v0c0 5.3-3.7 7.95-11.1 7.95zM74.95 3.9v0c0 1.767 0.493 2.993 1.48 3.68 0.98 0.68 2.797 1.02 5.45 1.02 2.647 0 4.547-0.367 5.7-1.1 1.147-0.733 1.72-1.957 1.72-3.67 0-1.72-0.417-2.83-1.25-3.33-0.833-0.5-2.467-0.75-4.9-0.75v0l-5.4-0.25c-1.1 0.8-1.84 1.5-2.22 2.1-0.387 0.6-0.58 1.367-0.58 2.3zM75.3-16.95c0 1.967 0.443 3.367 1.33 4.2 0.88 0.833 2.337 1.25 4.37 1.25 2.033 0 3.483-0.417 4.35-1.25 0.867-0.833 1.3-2.243 1.3-4.23 0-1.98-0.433-3.387-1.3-4.22-0.867-0.833-2.317-1.25-4.35-1.25-2.033 0-3.49 0.423-4.37 1.27-0.887 0.853-1.33 2.263-1.33 4.23zM115.05-3.1v0l1.45-0.15 0.1 2.95c-3.8 0.533-7.05 0.8-9.75 0.8v0c-3.6 0-6.15-1.043-7.65-3.13-1.5-2.08-2.25-5.32-2.25-9.72v0c0-8.767 3.483-13.15 10.45-13.15v0c3.367 0 5.883 0.94 7.55 2.82 1.667 1.887 2.5 4.847 2.5 8.88v0l-0.2 2.85h-16.5c0 2.767 0.5 4.817 1.5 6.15 1 1.333 2.743 2 5.23 2 2.48 0 5.003-0.1 7.57-0.3zM100.7-13.95h13c0-3.067-0.49-5.233-1.47-6.5-0.987-1.267-2.587-1.9-4.8-1.9-2.22 0-3.887 0.667-5 2-1.12 1.333-1.697 3.467-1.73 6.4z" fill="#5a5a58" fill-rule="nonzero" stroke="none" stroke-width="1" stroke-linecap="butt" stroke-linejoin="miter" stroke-miterlimit="10" stroke-dasharray="" stroke-dashoffset="0" font-family="none" font-weight="none" font-size="none" text-anchor="none" style="mix-blend-mode: normal" data-fill-palette-color="primary" opacity="1"></path><path xmlns="http://www.w3.org/2000/svg" d="M13.8 17.6v0c-5 0-7.5 1.883-7.5 5.65v0c0 2.1 0.577 3.54 1.73 4.32 1.147 0.787 3.48 1.57 7 2.35 3.513 0.787 6.003 1.803 7.47 3.05 1.467 1.253 2.2 3.313 2.2 6.18v0c0 7.1-3.683 10.65-11.05 10.65v0c-2.433 0-5.483-0.283-9.15-0.85v0l-1.8-0.25 0.4-3.2c4.533 0.6 7.983 0.9 10.35 0.9v0c4.933 0 7.4-2.317 7.4-6.95v0c0-1.867-0.54-3.21-1.62-4.03-1.087-0.813-3.113-1.503-6.08-2.07v0c-3.9-0.833-6.667-1.91-8.3-3.23-1.633-1.313-2.45-3.52-2.45-6.62v0c0-6.2 3.717-9.3 11.15-9.3v0c2.433 0 5.35 0.25 8.75 0.75v0l1.7 0.25-0.35 3.25c-4.633-0.567-7.917-0.85-9.85-0.85zM34.45 60.45h-3.75v-36.1h3.7v1.8c2.533-1.533 5.033-2.3 7.5-2.3v0c3.167 0 5.467 1.007 6.9 3.02 1.433 2.02 2.15 5.347 2.15 9.98 0 4.633-0.84 7.957-2.52 9.97-1.687 2.02-4.48 3.03-8.38 3.03v0c-2.033 0-3.9-0.183-5.6-0.55v0zM41.35 27.2v0c-1 0-2.073 0.167-3.22 0.5-1.153 0.333-2.063 0.667-2.73 1v0l-0.95 0.5v16.85c2.367 0.367 4.167 0.55 5.4 0.55v0c2.7 0 4.593-0.767 5.68-2.3 1.08-1.533 1.62-4.033 1.62-7.5 0-3.467-0.493-5.933-1.48-7.4-0.98-1.467-2.42-2.2-4.32-2.2zM60.8 49.35h-3.75v-25h3.75zM60.8 18.7h-3.75v-4.35h3.75zM71.75 49.35h-3.75v-25h3.7v3.4c2.9-2 5.95-3.317 9.15-3.95v0 3.8c-1.4 0.267-2.857 0.683-4.37 1.25-1.52 0.567-2.68 1.067-3.48 1.5v0l-1.25 0.65zM89.05 49.35h-3.75v-25h3.75zM89.05 18.7h-3.75v-4.35h3.75zM109.2 24.35v3.25h-7.95v11.95c0 2.867 0.21 4.75 0.63 5.65 0.413 0.9 1.403 1.35 2.97 1.35v0l4.45-0.3 0.25 3.1c-2.233 0.367-3.933 0.55-5.1 0.55v0c-2.6 0-4.4-0.633-5.4-1.9-1-1.267-1.5-3.683-1.5-7.25v0-13.15h-3.55v-3.25h3.55v-7.65h3.7v7.65zM121.65 27.2v0c-3.633 0-5.45 1.267-5.45 3.8v0c0 1.167 0.417 1.99 1.25 2.47 0.833 0.487 2.733 0.987 5.7 1.5 2.967 0.52 5.067 1.247 6.3 2.18 1.233 0.933 1.85 2.683 1.85 5.25 0 2.567-0.827 4.45-2.48 5.65-1.647 1.2-4.053 1.8-7.22 1.8v0c-2.067 0-4.5-0.233-7.3-0.7v0l-1.5-0.25 0.2-3.25c3.8 0.567 6.667 0.85 8.6 0.85 1.933 0 3.41-0.31 4.43-0.93 1.013-0.613 1.52-1.647 1.52-3.1 0-1.447-0.433-2.43-1.3-2.95-0.867-0.513-2.767-1.003-5.7-1.47-2.933-0.467-5.017-1.15-6.25-2.05-1.233-0.9-1.85-2.567-1.85-5 0-2.433 0.86-4.233 2.58-5.4 1.713-1.167 3.853-1.75 6.42-1.75v0c2.033 0 4.583 0.233 7.65 0.7v0l1.4 0.25-0.1 3.2c-3.7-0.533-6.617-0.8-8.75-0.8z" fill="#5a5a58" fill-rule="nonzero" stroke="none" stroke-width="1" stroke-linecap="butt" stroke-linejoin="miter" stroke-miterlimit="10" stroke-dasharray="" stroke-dashoffset="0" font-family="none" font-weight="none" font-size="none" text-anchor="none" style="mix-blend-mode: normal" data-fill-palette-color="primary" opacity="1"></path></g></svg></g></svg></g></svg></g></svg></g><g transform="matrix(1,0,0,1,0,3.6480821673516033)"><svg viewBox="0 0 161.41884498480246 193.7038356652968" height="193.7038356652968" width="161.41884498480246"><g><svg xmlns="http://www.w3.org/2000/svg" xmlns:xlink="http://www.w3.org/1999/xlink" version="1.1" x="0" y="0" viewBox="12.50047492980957 5 74.99952697753906 90" style="enable-background:new 0 0 100 100;" xml:space="preserve" height="193.7038356652968" width="161.41884498480246" class="icon-icon-0" data-fill-palette-color="accent" id="icon-0"><path d="M77.5 24.204V7.5C77.5 6.119 76.381 5 75 5H65c-1.381 0-2.5 1.119-2.5 2.5v16.704c-6.048 2.871-10 9.011-10 15.796v52.5c0 1.381 1.119 2.5 2.5 2.5h30c1.381 0 2.5-1.119 2.5-2.5V40C87.5 33.215 83.548 27.075 77.5 24.204zM82.5 90h-25V71.25h3.75V85c0 0.69 0.56 1.25 1.25 1.25s1.25-0.56 1.25-1.25V71.25H82.5V90zM82.5 68.75h-25v-17.5h25V68.75zM82.5 48.75H63.75v-7.447V40c0-0.899 0.196-1.768 0.556-2.565 0.307-0.68 0.733-1.308 1.277-1.852 0.488-0.488 0.488-1.28 0-1.768-0.488-0.488-1.28-0.488-1.768 0C62.161 35.469 61.25 37.666 61.25 40v8.75H57.5V40c0-5.276 3.349-10.007 8.334-11.771 0.998-0.354 1.666-1.298 1.666-2.357V10h5v15.872c0 1.059 0.667 2.003 1.666 2.357C79.151 29.993 82.5 34.724 82.5 40V48.75z" fill="#5a5a58" data-fill-palette-color="accent"></path><path d="M40 57.5H15c-0.729 0-1.422 0.318-1.897 0.872s-0.685 1.287-0.573 2.008l5 32.5C17.717 94.1 18.766 95 20 95h15c1.234 0 2.283-0.9 2.471-2.12l5-32.5c0.111-0.721-0.098-1.455-0.573-2.008S40.729 57.5 40 57.5zM32.855 90h-10.71l-4.231-27.5h19.172L32.855 90z" fill="#5a5a58" data-fill-palette-color="accent"></path><path d="M26.433 86.25c0.063 0 0.127-0.004 0.191-0.015 0.683-0.105 1.15-0.743 1.045-1.425l-2.692-17.5c-0.105-0.683-0.74-1.158-1.425-1.045-0.683 0.105-1.15 0.743-1.045 1.425l2.692 17.5C25.294 85.808 25.827 86.25 26.433 86.25z" fill="#5a5a58" data-fill-palette-color="accent"></path></svg></g></svg></g></svg></g><defs></defs></svg><rect width="395.5199999999999" height="167.2162989710002" fill="none" stroke="none" visibility="hidden"></rect></g></svg></g></g></g></g><rect width="229.29438642297652" height="172.23134077186683" x="295.4656902741515" y="114.88431686520886" rx="2.5" ry="2.5" fill="transparent" class="logo-element-hover-target"></rect><rect width="146.28784880874673" height="173.1464537777415" x="117.24002529373371" y="114.42678585998692" rx="2.5" ry="2.5" fill="transparent" class="logo-element-hover-target"></rect></svg>